# xmcd
#
# Track frame offsets: 
#        150
#        16222
#        31220
#        44612
#        60690
#        75545
#        92047
#        113795
#        131700
#        153777
#        170002
#        187605
#
# Disc length: 2783 seconds
#
# Revision: 4
# Processed by: cddbd v1.5.2PL0 Copyright (c) Steve Scherf et al.
# Submitted via: ExactAudioCopy v1.0b3
#
DISCID=8d0add0c
DTITLE=The Holmes Brothers - Promised Land
DYEAR=1997
DGENRE=Blues
TTITLE0=Promised Land
TTITLE1=Start Stoppin'
TTITLE2=Train Song
TTITLE3=Easy Access
TTITLE4=You're Good For Me
TTITLE5=You Got To Go
TTITLE6=And I Love Her
TTITLE7=There's A Train
TTITLE8=Got Myself Together
TTITLE9=Thank God For You
TTITLE10=The New and Improved Me
TTITLE11=I Surrender All
EXTD=YEAR: 1997 ID3G: 0
EXTT0=
EXTT1=
EXTT2=
EXTT3=
EXTT4=
EXTT5=
EXTT6=
EXTT7=
EXTT8=
EXTT9=
EXTT10=
EXTT11=
PLAYORDER=
